<?xml version="1.0" encoding="utf-8"?>
<!-- Generator: Adobe Illustrator 15.1.0, SVG Export Plug-In . SVG Version: 6.00 Build 0)  -->
<!DOCTYPE svg PUBLIC "-//W3C//DTD SVG 1.1//EN" "http://www.w3.org/Graphics/SVG/1.1/DTD/svg11.dtd">
<svg version="1.1" id="Layer_1" xmlns="http://www.w3.org/2000/svg" xmlns:xlink="http://www.w3.org/1999/xlink" x="0px" y="0px"
	 width="612px" height="792px" viewBox="0 0 612 792" enable-background="new 0 0 612 792" xml:space="preserve">
<path fill-rule="evenodd" clip-rule="evenodd" stroke="#000000" stroke-width="2.9999" stroke-linecap="round" stroke-linejoin="round" stroke-miterlimit="22.9256" d="
	M139.812,162.137c-37.744,28.877-69.662,70.437-86.698,118.542S33.925,383.437,38.738,425.807S55.33,498.268,57.42,517.9
	c2.09,19.633-5.51,28.809-8.917,43.44c-3.408,14.632-2.625,34.719,3.012,53.138c5.636,18.42,16.125,35.172,30.262,43.309
	s31.922,7.658,43.348,9.204c11.425,1.546,16.492,5.115,24.092,9.973c7.599,4.857,17.732,11.005,31.475,12.121
	c13.742,1.117,31.094-2.796,42.911-9.372c11.816-6.575,18.097-15.814,20.413-28.867c2.316-13.054,0.67-29.919-5.16-57.568
	c-5.83-27.65-15.843-66.082-23.822-96.713c-7.98-30.631-13.926-53.46-23.422-68.182c-9.496-14.721-22.542-21.332-36.791-19.512
	c-14.25,1.821-29.701,12.076-39.201,22.062s-13.045,19.701-16.339,18.352s-6.333-13.764-8.359-37.782
	c-2.027-24.019-3.04-59.643,4.053-90.678c7.093-31.036,22.292-57.484,46.104-82.852c97.829-104.224,233.013-104.224,330.842,0
	c23.813,25.368,39.012,51.816,46.104,82.852c7.093,31.035,6.08,66.659,4.053,90.678c-2.026,24.019-5.066,36.433-8.359,37.782
	s-6.84-8.366-16.339-18.352s-24.951-20.24-39.201-22.062c-14.248-1.82-27.294,4.791-36.79,19.512
	c-9.496,14.722-15.442,37.551-23.422,68.182s-17.992,69.063-23.822,96.713c-5.83,27.649-7.476,44.515-5.16,57.568
	c2.317,13.053,8.598,22.292,20.413,28.867c11.816,6.576,29.169,10.489,42.911,9.372c13.743-1.116,23.875-7.264,31.475-12.121
	s12.666-8.427,24.092-9.973s29.211-1.067,43.348-9.204s24.626-24.889,30.262-43.309c5.637-18.419,6.42-38.506,3.013-53.138
	c-3.408-14.632-11.007-23.808-8.917-43.44s13.869-49.724,18.682-92.094c4.813-42.37,2.66-97.021-14.375-145.127
	c-17.036-48.105-48.954-89.666-86.698-118.542C371.389,84.254,241.611,84.254,139.812,162.137z"/>
</svg>
